<svg width="21" height="40" viewBox="0 0 21 40" fill="none" xmlns="http://www.w3.org/2000/svg">
<path d="M2.11997 40C1.67023 40 1.22048 39.8385 0.865424 39.4924C0.178973 38.8234 0.178973 37.7159 0.865424 37.0469L16.2987 22.0043C17.4349 20.8969 17.4349 19.0973 16.2987 17.9899L0.865424 2.94737C0.178973 2.2783 0.178973 1.17087 0.865424 0.501802C1.55187 -0.167267 2.68807 -0.167267 3.37452 0.501802L18.8078 15.5443C20.015 16.721 20.7015 18.3129 20.7015 19.9971C20.7015 21.6813 20.0387 23.2733 18.8078 24.4499L3.37452 39.4924C3.01946 39.8154 2.56971 40 2.11997 40Z" fill="#FAFAFF"/>
</svg>
