<svg width="33" height="32" viewBox="0 0 33 32" fill="none" xmlns="http://www.w3.org/2000/svg">
<g filter="url(#filter0_d_339_710)">
<path d="M25.5324 18.9091C25.0565 18.9091 24.6201 19.319 24.6201 19.8518V23.4997C24.6201 23.8686 24.3425 24.1555 23.9855 24.1555H4.86684C4.50985 24.1555 4.2322 23.8686 4.2322 23.4997V19.8518C4.2322 19.319 3.79588 18.9091 3.31989 18.9091C2.84391 18.9091 2.40759 19.319 2.40759 19.8518V23.4997C2.40759 24.8933 3.47856 26 4.82717 26H23.9855C25.3341 26 26.4051 24.8933 26.4051 23.4997V19.8518C26.4447 19.319 26.0084 18.9091 25.5324 18.9091Z" fill="#FAFAFF"/>
<path d="M13.7637 19.7568C13.9229 19.9189 14.1616 20 14.4003 20C14.639 20 14.8379 19.9189 15.0369 19.7568L20.8057 14.0405C21.1638 13.6757 21.1638 13.1081 20.8057 12.7432C20.4477 12.3784 19.8907 12.3784 19.5326 12.7432L15.3153 16.9595V2.93243C15.3153 2.44595 14.9175 2 14.4003 2C13.9229 2 13.4852 2.40541 13.4852 2.93243V16.9595L9.26795 12.7432C8.90989 12.3784 8.35289 12.4189 7.99482 12.7432C7.63675 13.1081 7.67653 13.6757 7.99482 14.0405L13.7637 19.7568Z" fill="#FAFAFF"/>
</g>
<defs>
<filter id="filter0_d_339_710" x="0.407593" y="0" width="32" height="32" filterUnits="userSpaceOnUse" color-interpolation-filters="sRGB">
<feFlood flood-opacity="0" result="BackgroundImageFix"/>
<feColorMatrix in="SourceAlpha" type="matrix" values="0 0 0 0 0 0 0 0 0 0 0 0 0 0 0 0 0 0 127 0" result="hardAlpha"/>
<feOffset dx="2" dy="2"/>
<feGaussianBlur stdDeviation="2"/>
<feComposite in2="hardAlpha" operator="out"/>
<feColorMatrix type="matrix" values="0 0 0 0 0.0117647 0 0 0 0 0.160784 0 0 0 0 0.301961 0 0 0 0.25 0"/>
<feBlend mode="normal" in2="BackgroundImageFix" result="effect1_dropShadow_339_710"/>
<feBlend mode="normal" in="SourceGraphic" in2="effect1_dropShadow_339_710" result="shape"/>
</filter>
</defs>
</svg>
