<svg width="25" height="24" viewBox="0 0 25 24" fill="none" xmlns="http://www.w3.org/2000/svg">
<path d="M22.631 0H2.17947C1.19978 0 0.407593 0.773438 0.407593 1.72969V22.2656C0.407593 23.2219 1.19978 24 2.17947 24H22.631C23.6107 24 24.4076 23.2219 24.4076 22.2703V1.72969C24.4076 0.773438 23.6107 0 22.631 0ZM7.5279 20.4516H3.96541V8.99531H7.5279V20.4516ZM5.74666 7.43438C4.60291 7.43438 3.67947 6.51094 3.67947 5.37187C3.67947 4.23281 4.60291 3.30937 5.74666 3.30937C6.88572 3.30937 7.80915 4.23281 7.80915 5.37187C7.80915 6.50625 6.88572 7.43438 5.74666 7.43438ZM20.8592 20.4516H17.3013V14.8828C17.3013 13.5562 17.2779 11.8453 15.4498 11.8453C13.5982 11.8453 13.317 13.2937 13.317 14.7891V20.4516H9.76384V8.99531H13.1763V10.5609H13.2232C13.6967 9.66094 14.8592 8.70938 16.5888 8.70938C20.1935 8.70938 20.8592 11.0813 20.8592 14.1656V20.4516Z" fill="white"/>
</svg>
