<svg width="78" height="91" viewBox="0 0 78 91" fill="none" xmlns="http://www.w3.org/2000/svg">
<path d="M7.18938 62.1084C8.00343 62.3227 8.85699 62.4497 9.74612 62.4536C15.1007 76.8507 26.1456 90.5216 38.9096 90.5216C51.306 90.5216 62.0744 77.6484 67.5909 63.7275C67.994 63.2909 68.4129 62.8663 68.7606 62.41C69.3376 62.3663 69.8987 62.287 70.4401 62.156C74.5103 61.148 77.5097 57.6678 77.5097 53.513V46.493C77.5097 42.4175 74.6131 39.0047 70.6653 37.9254C70.5982 37.6277 70.5152 37.3301 70.4361 37.0325V29.8419C70.444 13.3852 56.2575 0 38.8187 0C21.3799 0 7.18938 13.3852 7.18938 29.8419V37.7825C7.18148 37.8222 7.16962 37.8619 7.15777 37.9015C3.20213 38.977 0.305542 42.4096 0.305542 46.489V53.509C0.309494 57.5964 3.22189 61.0409 7.18938 62.1084ZM38.9135 85.3866C28.0543 85.3866 18.6098 73.9777 13.7887 61.7036V38.5444C16.3573 33.1118 19.4317 30.5284 19.4317 30.5284C24.3002 45.4176 57.9449 38.7151 57.9449 38.7151C60.6439 38.5087 62.517 39.4174 63.8447 40.8143V61.6163C59.9049 65.287 53.2384 67.9458 45.584 68.6045C44.849 67.4656 43.5805 66.7077 42.1263 66.7077H36.6413C34.3533 66.7077 32.5078 68.5649 32.5078 70.8546C32.5078 73.1443 34.3572 75.0015 36.6413 75.0015H42.1263C43.7188 75.0015 45.0821 74.0888 45.7697 72.7634C51.4325 72.3189 56.5104 70.8903 60.6715 68.7831C55.4395 78.0293 47.6349 85.3866 38.9135 85.3866ZM38.8187 6.22631C50.081 6.22631 59.6204 13.282 62.7541 22.9528C56.8028 16.536 48.3383 12.4963 38.9175 12.4963C29.3504 12.4963 20.7674 16.663 14.8043 23.2505C17.8352 13.4328 27.4457 6.22631 38.8187 6.22631Z" fill="#FAFAFF"/>
</svg>
