<svg width="42" height="42" viewBox="0 0 42 42" fill="none" xmlns="http://www.w3.org/2000/svg">
<path fill-rule="evenodd" clip-rule="evenodd" d="M6.16029 37.3346L2.88354 0.583344H38.8898L35.6095 37.3286L20.8649 41.4167L6.16029 37.3346Z" fill="#0071BC"/>
<path fill-rule="evenodd" clip-rule="evenodd" d="M20.9169 38.29L32.8165 35.0164L35.6045 3.64395H20.9169V38.29Z" fill="#29ABE2"/>
<path fill-rule="evenodd" clip-rule="evenodd" d="M10.384 17.1462L10.7788 21.647L20.9169 17.1462V12.6382L10.384 17.1462Z" fill="#B3B3B3"/>
<path fill-rule="evenodd" clip-rule="evenodd" d="M32.1452 7.82599L20.9169 12.6381V17.1462L31.7581 12.3268L32.1452 7.82599Z" fill="#E6E6E6"/>
<path fill-rule="evenodd" clip-rule="evenodd" d="M20.9169 28.9224L20.882 28.9276L15.8542 27.5774L15.5257 23.9874H11.0007L11.6322 31.0599L20.881 33.6208L20.9169 33.6123V28.9224Z" fill="#E6E6E6"/>
<path fill-rule="evenodd" clip-rule="evenodd" d="M20.9169 17.1462V21.647H26.4215L25.9212 27.5314L20.9169 28.9263V33.6158L30.135 31.055L31.3489 17.1462H20.9169Z" fill="white"/>
<path fill-rule="evenodd" clip-rule="evenodd" d="M20.9169 17.1462H10.384L10.7788 21.647H20.9169V17.1462Z" fill="#E6E6E6"/>
<path fill-rule="evenodd" clip-rule="evenodd" d="M20.9169 12.3268V7.82599H20.8712H9.58374L9.98314 12.3268H20.9169Z" fill="#E6E6E6"/>
<path fill-rule="evenodd" clip-rule="evenodd" d="M20.9169 7.82599V12.2703V12.3268H31.7581L32.1452 7.82599H20.9169Z" fill="white"/>
</svg>
