<svg width="30" height="42" viewBox="0 0 30 42" fill="none" xmlns="http://www.w3.org/2000/svg">
<path d="M0.0736084 33.5427L0.320806 33.1965L12.0144 11.0084L12.0391 10.7735L6.88433 1.09097C6.45246 0.279885 5.23665 0.484956 5.09491 1.3929L0.0736084 33.5427Z" fill="#FFC24A"/>
<path d="M0.219421 33.2787L0.406419 32.9141L11.9775 10.9584L6.83563 1.23649C6.40828 0.4339 5.32307 0.638496 5.18283 1.53693L0.219421 33.2787Z" fill="#FFA712"/>
<path d="M15.797 18.0974L19.6351 14.1666L15.7959 6.83744C15.4315 6.14369 14.4139 6.14169 14.0533 6.83744L12.0021 10.7494V11.0825L15.797 18.0974Z" fill="#F4BD62"/>
<path d="M15.7286 17.9336L19.46 14.1121L15.7286 7.00694C15.3743 6.33248 14.5135 6.26182 14.1629 6.93822L12.1009 10.9107L12.0392 11.1138L15.7286 17.9336Z" fill="#FFA50E"/>
<path d="M0.0736084 33.5427L0.185659 33.43L0.592775 33.2645L15.5559 18.357L15.7455 17.841L12.0128 10.728L0.0736084 33.5427Z" fill="#F6820C"/>
<path d="M16.2763 41.0608L29.8182 33.5084L25.9511 9.69197C25.8301 8.94682 24.916 8.65223 24.3826 9.18653L0.0736084 33.5426L13.5379 41.0602C14.3888 41.5353 15.4251 41.5355 16.2763 41.0608Z" fill="#FDE068"/>
<path d="M29.6969 33.445L25.8591 9.80943C25.7391 9.06994 24.9789 8.76393 24.4496 9.29417L0.223755 33.4964L13.5402 40.9395C14.3846 41.411 15.4131 41.4112 16.2578 40.9402L29.6969 33.445Z" fill="#FCCA3F"/>
<path d="M16.2763 40.8383C15.4251 41.313 14.3888 41.3128 13.5379 40.8377L0.182055 33.4281L0.0736084 33.5426L13.5379 41.0602C14.3888 41.5353 15.4251 41.5355 16.2763 41.0609L29.8182 33.5084L29.7851 33.3044L16.2763 40.8383Z" fill="#EEAB37"/>
</svg>
