<svg width="42" height="42" viewBox="0 0 42 42" fill="none" xmlns="http://www.w3.org/2000/svg">
<path fill-rule="evenodd" clip-rule="evenodd" d="M40.555 19.181L22.7265 1.35352C21.7006 0.326617 20.0352 0.326617 19.0079 1.35352L15.3058 5.05566L20.0021 9.752C21.0935 9.38327 22.3448 9.63059 23.2149 10.5007C24.089 11.3761 24.3345 12.6383 23.9568 13.7333L28.4828 18.2594C29.5778 17.8821 30.8413 18.1263 31.7158 19.0022C32.938 20.224 32.938 22.2043 31.7158 23.427C30.4931 24.6497 28.5128 24.6497 27.2897 23.427C26.3704 22.5068 26.1432 21.1564 26.6087 20.0237L22.3878 15.8028L22.3874 26.9105C22.6853 27.0584 22.9667 27.2551 23.2149 27.5024C24.4371 28.7242 24.4371 30.7045 23.2149 31.9281C21.9922 33.1504 20.011 33.1504 18.7901 31.9281C17.5679 30.7045 17.5679 28.7242 18.7901 27.5024C19.0921 27.2009 19.4416 26.9728 19.8143 26.8196V15.6083C19.4416 15.456 19.0926 15.2293 18.7901 14.9255C17.8641 14.0008 17.6414 12.6419 18.1159 11.5047L13.4868 6.8747L1.26232 19.0985C0.234988 20.1263 0.234988 21.7917 1.26232 22.8186L19.0908 40.6465C20.1172 41.6734 21.7821 41.6734 22.8099 40.6465L40.555 22.9015C41.5819 21.8741 41.5819 20.2079 40.555 19.181Z" fill="#DE4C36"/>
</svg>
