<svg width="40" height="40" viewBox="0 0 40 40" fill="none" xmlns="http://www.w3.org/2000/svg">
<path fill-rule="evenodd" clip-rule="evenodd" d="M1.10876 1.20117H38.7064V38.7988H1.10876V1.20117Z" fill="#F7DF1E"/>
<path fill-rule="evenodd" clip-rule="evenodd" d="M10.9946 32.6205L13.8718 30.8793C14.4269 31.8635 14.9318 32.6962 16.143 32.6962C17.304 32.6962 18.036 32.242 18.036 30.4755V18.4622H21.5692V30.5255C21.5692 34.185 19.4241 35.8507 16.2945 35.8507C13.468 35.8507 11.8273 34.3868 10.9945 32.6202" fill="black"/>
<path fill-rule="evenodd" clip-rule="evenodd" d="M23.4883 32.2419L26.3652 30.5762C27.1225 31.813 28.1068 32.7215 29.8481 32.7215C31.3121 32.7215 32.2456 31.9895 32.2456 30.98C32.2456 29.7686 31.2866 29.3395 29.6714 28.6331L28.7883 28.2542C26.2391 27.1692 24.5481 25.8064 24.5481 22.9292C24.5481 20.2792 26.5671 18.2601 29.722 18.2601C31.9682 18.2601 33.5834 19.0426 34.7442 21.0869L31.9932 22.8534C31.3875 21.7683 30.7315 21.3393 29.722 21.3393C28.6873 21.3393 28.031 21.9955 28.031 22.8534C28.031 23.9134 28.6873 24.3426 30.2014 24.9988L31.0846 25.3774C34.088 26.6646 35.779 27.9768 35.779 30.9295C35.779 34.1097 33.2804 35.8509 29.9239 35.8509C26.643 35.8509 24.5229 34.2863 23.4883 32.2419" fill="black"/>
</svg>
