<svg width="41" height="42" viewBox="0 0 41 42" fill="none" xmlns="http://www.w3.org/2000/svg">
<path fill-rule="evenodd" clip-rule="evenodd" d="M20.5271 40.8642C19.9786 40.8642 19.4667 40.7179 18.9913 40.4619L14.128 37.5732C13.3967 37.171 13.7623 37.0247 13.9817 36.9516C14.969 36.6225 15.1518 36.5494 16.1757 35.9643C16.2854 35.8912 16.4317 35.9277 16.5414 36.0009L20.2711 38.2314C20.4174 38.3045 20.6002 38.3045 20.7099 38.2314L35.2998 29.7846C35.4461 29.7115 35.5192 29.5652 35.5192 29.3824V12.5254C35.5192 12.3425 35.4461 12.1963 35.2998 12.1231L20.7099 3.71291C20.5636 3.63978 20.3808 3.63978 20.2711 3.71291L5.6812 12.1231C5.53493 12.1963 5.4618 12.3791 5.4618 12.5254V29.3824C5.4618 29.5287 5.53493 29.7115 5.6812 29.7846L9.66691 32.0883C11.8243 33.1853 13.1773 31.9055 13.1773 30.6256V13.988C13.1773 13.7686 13.3601 13.5492 13.6161 13.5492H15.4809C15.7003 13.5492 15.9197 13.732 15.9197 13.988V30.6256C15.9197 33.5144 14.3474 35.1964 11.6049 35.1964C10.7639 35.1964 10.1057 35.1964 8.24083 34.2823L4.40138 32.0883C3.45066 31.5398 2.8656 30.5159 2.8656 29.419V12.5619C2.8656 11.4649 3.45066 10.4411 4.40138 9.8926L18.9913 1.4458C19.9055 0.933877 21.1487 0.933877 22.0629 1.4458L36.6528 9.8926C37.6035 10.4411 38.1886 11.4649 38.1886 12.5619V29.419C38.1886 30.5159 37.6035 31.5398 36.6528 32.0883L22.0629 40.5351C21.5875 40.7545 21.039 40.8642 20.5271 40.8642ZM25.0247 29.2727C18.6256 29.2727 17.3093 26.3474 17.3093 23.8609C17.3093 23.6415 17.4921 23.4221 17.748 23.4221H19.6495C19.8689 23.4221 20.0517 23.5684 20.0517 23.7878C20.3442 25.7258 21.1853 26.6765 25.0613 26.6765C28.1328 26.6765 29.4492 25.9817 29.4492 24.3362C29.4492 23.3855 29.0836 22.6908 24.2934 22.2154C20.3077 21.8132 17.8212 20.9356 17.8212 17.7543C17.8212 14.7925 20.3077 13.0373 24.4762 13.0373C29.1567 13.0373 31.4604 14.6462 31.7529 18.1566C31.7529 18.2663 31.7163 18.376 31.6432 18.4857C31.5701 18.5588 31.4604 18.6319 31.3507 18.6319H29.4492C29.2664 18.6319 29.0836 18.4857 29.047 18.3028C28.6082 16.2917 27.4747 15.6335 24.4762 15.6335C21.1121 15.6335 20.7099 16.8036 20.7099 17.6812C20.7099 18.7416 21.1853 19.0707 25.7195 19.6558C30.2171 20.2408 32.338 21.0819 32.338 24.2265C32.3014 27.4444 29.6686 29.2727 25.0247 29.2727Z" fill="#539E43"/>
</svg>
