<svg width="42" height="38" viewBox="0 0 42 38" fill="none" xmlns="http://www.w3.org/2000/svg">
<path d="M34.0642 12.5917C33.6406 12.4459 33.2016 12.3079 32.7497 12.1774C32.824 11.8743 32.8922 11.575 32.9528 11.2809C33.9478 6.45091 33.2972 2.55984 31.0757 1.27873C28.9455 0.0503191 25.4617 1.33114 21.9433 4.39312C21.605 4.68755 21.2657 4.99929 20.9265 5.326C20.7006 5.10984 20.475 4.90095 20.2499 4.70115C16.5625 1.42708 12.8664 0.0473391 10.6471 1.33215C8.51893 2.56413 7.88869 6.22211 8.78436 10.7995C8.87086 11.2417 8.97196 11.6932 9.08629 12.1522C8.56319 12.3007 8.05819 12.459 7.57499 12.6274C3.25189 14.1346 0.490967 16.4968 0.490967 18.947C0.490967 21.4776 3.45483 24.0159 7.95767 25.5549C8.31302 25.6764 8.68174 25.7912 9.06172 25.9002C8.93838 26.3967 8.8311 26.8833 8.74104 27.3578C7.88702 31.8558 8.55396 35.4274 10.6764 36.6516C12.8688 37.9158 16.5481 36.6163 20.1309 33.4845C20.414 33.237 20.6982 32.9745 20.9829 32.6993C21.3519 33.0546 21.7204 33.3909 22.0868 33.7064C25.5572 36.6927 28.9847 37.8986 31.1052 36.671C33.2953 35.4031 34.0071 31.5664 33.083 26.8984C33.0124 26.5419 32.9303 26.1777 32.8381 25.807C33.0965 25.7306 33.3501 25.6517 33.5975 25.5698C38.2786 24.0188 41.3243 21.5114 41.3243 18.947C41.3243 16.488 38.4743 14.1099 34.0642 12.5917ZM33.0489 23.914C32.8256 23.9879 32.5965 24.0593 32.363 24.1286C31.8462 22.4926 31.1488 20.7529 30.2953 18.9555C31.1098 17.201 31.7803 15.4836 32.2826 13.8582C32.7003 13.979 33.1057 14.1065 33.4964 14.2411C37.275 15.5419 39.5799 17.4651 39.5799 18.947C39.5799 20.5256 37.0907 22.5747 33.0489 23.914ZM31.3718 27.2372C31.7804 29.3013 31.8388 31.1675 31.5681 32.6264C31.3249 33.9373 30.8358 34.8113 30.2311 35.1613C28.9442 35.9062 26.1923 34.938 23.2245 32.3841C22.8842 32.0913 22.5415 31.7787 22.1978 31.4478C23.3483 30.1895 24.4982 28.7266 25.6205 27.1019C27.5945 26.9267 29.4595 26.6404 31.1507 26.2494C31.234 26.5854 31.308 26.915 31.3718 27.2372ZM14.412 35.0326C13.1547 35.4766 12.1534 35.4894 11.5481 35.1403C10.26 34.3974 9.72459 31.5298 10.455 27.6832C10.5386 27.2426 10.6382 26.7901 10.753 26.3275C12.4257 26.6974 14.277 26.9636 16.2557 27.124C17.3856 28.7138 18.5687 30.1751 19.761 31.4546C19.5005 31.7061 19.241 31.9455 18.983 32.1711C17.3987 33.5559 15.8111 34.5384 14.412 35.0326ZM8.52183 23.9043C6.53076 23.2238 4.88646 22.3393 3.75937 21.3741C2.7466 20.5068 2.23528 19.6457 2.23528 18.947C2.23528 17.4602 4.45203 15.5637 8.14919 14.2746C8.59779 14.1182 9.06739 13.9708 9.55473 13.8324C10.0657 15.4945 10.736 17.2322 11.5449 18.9895C10.7255 20.7728 10.0457 22.5383 9.52973 24.2199C9.1823 24.12 8.84571 24.0149 8.52183 23.9043ZM10.4963 10.4645C9.72888 6.54271 10.2385 3.58423 11.521 2.84185C12.8871 2.05099 15.9079 3.17859 19.0917 6.00558C19.2952 6.18627 19.4995 6.37539 19.7044 6.57106C18.518 7.84497 17.3457 9.29528 16.2258 10.8757C14.3054 11.0537 12.4671 11.3396 10.777 11.7225C10.6707 11.2951 10.5766 10.8751 10.4963 10.4645ZM28.1099 14.8138C27.7059 14.1159 27.2911 13.4345 26.8682 12.7717C28.171 12.9364 29.4193 13.155 30.5915 13.4226C30.2396 14.5505 29.801 15.7297 29.2846 16.9387C28.9142 16.2355 28.5225 15.5264 28.1099 14.8138ZM20.9271 7.81771C21.7317 8.6894 22.5375 9.66262 23.33 10.7186C22.5314 10.6808 21.7228 10.6612 20.9076 10.6612C20.1001 10.6612 19.2976 10.6804 18.5039 10.7175C19.2972 9.67134 20.1099 8.69943 20.9271 7.81771ZM13.6983 14.8259C13.2947 15.5257 12.9102 16.2309 12.5456 16.9374C12.0376 15.7326 11.6031 14.548 11.2481 13.4041C12.4131 13.1434 13.6555 12.9302 14.95 12.7686C14.5212 13.4375 14.103 14.124 13.6983 14.8257V14.8259ZM14.9873 25.2499C13.6498 25.1007 12.3888 24.8985 11.224 24.6449C11.5847 23.4806 12.0289 22.2707 12.5476 21.04C12.9131 21.746 13.2991 22.4514 13.7052 23.1528H13.7053C14.1189 23.8674 14.5475 24.5673 14.9873 25.2499ZM20.9754 30.1994C20.1486 29.3073 19.3239 28.3206 18.5186 27.2592C19.3004 27.2899 20.0975 27.3056 20.9076 27.3056C21.7399 27.3056 22.5627 27.2868 23.3725 27.2508C22.5774 28.3313 21.7745 29.3195 20.9754 30.1994ZM29.3013 20.9773C29.847 22.2213 30.3071 23.4249 30.6724 24.5693C29.4885 24.8394 28.2102 25.057 26.8634 25.2186C27.2873 24.5469 27.7057 23.8538 28.1169 23.1408C28.5329 22.4195 28.9278 21.6971 29.3013 20.9773ZM26.6059 22.2694C25.9676 23.3761 25.3123 24.4326 24.647 25.4299C23.4353 25.5166 22.1835 25.5612 20.9076 25.5612C19.6369 25.5612 18.4009 25.5217 17.2106 25.4444C16.5185 24.4341 15.849 23.3744 15.2148 22.2789H15.2149C14.5823 21.1863 14.0002 20.0845 13.4726 18.9889C14 17.8907 14.5807 16.7877 15.2096 15.6971L15.2094 15.6973C15.84 14.6038 16.5037 13.5493 17.1894 12.5453C18.4038 12.4535 19.6491 12.4056 20.9076 12.4056H20.9076C22.1718 12.4056 23.4187 12.4539 24.6327 12.5465C25.3079 13.5432 25.9671 14.5942 26.6001 15.6879C27.2404 16.7938 27.8286 17.8895 28.3605 18.9641C27.8302 20.0572 27.2433 21.1639 26.6059 22.2694ZM30.2043 2.78995C31.5717 3.57849 32.1035 6.75865 31.2444 10.9288C31.1896 11.1949 31.1279 11.466 31.0608 11.7406C29.3667 11.3497 27.5271 11.0589 25.6011 10.8782C24.4791 9.28038 23.3164 7.82781 22.1493 6.57026C22.4631 6.2684 22.7765 5.98058 23.0885 5.70896C26.1031 3.08548 28.9206 2.04968 30.2043 2.78995ZM20.9076 15.3008C22.9214 15.3008 24.5539 16.9332 24.5539 18.947C24.5539 20.9608 22.9214 22.5933 20.9076 22.5933C18.8939 22.5933 17.2614 20.9608 17.2614 18.947C17.2614 16.9332 18.8939 15.3008 20.9076 15.3008Z" fill="#00D8FF"/>
</svg>
