<svg width="37" height="42" viewBox="0 0 37 42" fill="none" xmlns="http://www.w3.org/2000/svg">
<path fill-rule="evenodd" clip-rule="evenodd" d="M11.8162 25.5481C11.1602 25.9538 10.1717 26.6112 9.40698 27.3262C8.15157 28.4987 7.88886 30.1252 8.55113 30.5051C9.16375 30.8564 10.594 30.4384 11.6176 29.3343C12.6918 28.175 13.1349 26.7054 12.6773 25.0371C12.6235 25.0688 12.5708 25.1006 12.519 25.1302L12.5201 25.1324L12.4507 25.1713C12.1836 25.329 11.9654 25.459 11.8162 25.5481Z" fill="#CD6799"/>
<path fill-rule="evenodd" clip-rule="evenodd" d="M30.0353 25.065C29.6697 25.8642 29.6514 26.1214 29.7624 26.2014C30.2929 26.0097 31.1706 25.5477 31.1775 24.3096C31.1786 24.1242 31.138 23.9252 31.0727 23.7173C30.5056 24.2225 30.1787 24.7514 30.0353 25.065Z" fill="#CD6799"/>
<path fill-rule="evenodd" clip-rule="evenodd" d="M35.7457 22.6286C34.3215 22.4625 33.2102 22.6624 32.3477 23.0219C32.5074 23.4378 32.6301 23.871 32.6474 24.3075C32.6875 25.2653 32.0285 25.9742 31.3418 26.4802C30.9408 26.7753 30.5141 26.9719 30.1559 27.0907C29.8695 27.2116 29.4888 27.3365 29.2186 27.2813C28.623 27.1602 28.3059 26.6308 28.7111 25.4631C28.93 24.8311 29.5613 23.8691 30.5805 23.0405C30.3482 22.562 30.0893 22.0745 29.9574 21.6266C29.6973 20.7437 29.6188 20.21 29.6188 20.21C29.6188 20.21 28.7788 21.9525 27.6951 23.5372C27.6326 23.6293 27.5702 23.7196 27.5078 23.8096C27.7206 24.3045 27.8883 24.8279 27.911 25.3556C27.9509 26.3133 27.5365 27.0375 26.8488 27.5425C26.4765 27.8171 26.0794 28.0068 25.7386 28.1275C25.5207 28.2227 25.0775 28.3793 24.4473 28.4215C24.1026 28.4451 23.7711 28.4237 23.586 28.2833C23.3311 28.0907 23.3004 27.853 23.4324 27.5282C23.544 27.2526 24.3788 26.2991 25.0788 25.4642C25.2721 25.2336 25.4563 24.998 25.621 24.7799L25.6169 24.7705C25.6169 24.7707 25.7437 24.6068 25.9495 24.321C25.6937 23.7698 25.3694 23.1961 25.2169 22.6758C24.9569 21.7929 24.8782 21.259 24.8782 21.259C24.8782 21.259 24.0267 23.4431 23.1397 25.1866C22.4533 26.5369 21.9948 27.3552 21.7882 27.7137L21.7861 27.7281C21.7861 27.7281 21.7553 27.7804 21.7021 27.8624L21.6624 27.9288L21.6613 27.9227C21.431 28.2629 20.9143 28.9296 20.4007 28.9296C18.9907 28.9296 19.5083 26.0645 19.5083 26.0645C19.5083 26.0645 19.0962 27.1257 18.6315 28.0364C18.2531 28.779 17.9082 29.4082 17.1542 29.4082C16.9372 29.4082 16.5934 29.4019 16.3079 29.1303C15.6602 28.5147 15.165 26.9514 15.2621 25.7407C15.345 24.7112 15.5036 23.9982 15.7205 23.4032C15.3337 23.6141 14.8866 23.8642 14.4313 24.1316L13.7313 24.5443L13.7539 24.5853C14.3329 25.7061 14.4875 28.1615 13.2248 30.0463C11.9623 31.9322 9.612 33.0795 7.32211 32.4424C6.58323 32.2364 5.46702 30.707 6.42979 28.5753C7.27901 26.6954 10.673 24.9182 11.5674 24.4747L11.8129 24.3394C10.0296 22.7782 5.57652 20.6721 4.95244 17.4371C4.7764 16.5264 5.2031 14.3486 7.87561 11.8451C10.1235 9.73998 13.2505 8.12756 16.1391 7.10006C20.992 5.37403 26.1194 6.39218 26.9082 9.48792C27.6838 12.5324 25.0441 16.1742 21.6633 17.4833C18.6449 18.652 16.1493 18.4667 15.124 18.1298C13.9585 17.7467 13.275 16.9772 13.1083 16.5429C13.0428 16.3729 12.9301 16.0872 13.1083 15.9888C13.2177 15.9284 13.2617 15.9428 13.5543 16.2664C13.8327 16.5737 14.952 17.3985 17.0783 17.1597C22.6579 16.5338 26.019 12.1934 24.9569 9.85777C24.2131 8.22288 19.9126 7.48527 14.5397 10.1661C7.98093 13.438 7.62495 16.1352 7.56873 17.1597C7.41515 19.9777 11.0423 21.46 13.005 23.5557L13.0806 23.6388C13.4479 23.436 13.8358 23.2219 14.2163 23.013C15.2059 22.4689 16.1391 21.9587 16.5739 21.721C17.2646 20.7164 18.6662 19.6078 19.6782 19.6078C21.2959 19.6078 20.7403 21.9342 20.7403 21.9342C20.7403 21.9342 20.7731 21.8278 20.8171 21.8268C20.8631 21.8255 21.0412 21.5203 21.5406 21.7026C22.0542 21.8911 21.9374 22.2518 21.9407 22.2886C21.9468 22.3602 21.3339 24.4285 21.0792 25.755C20.9572 26.3881 21.0278 26.8493 21.0638 26.8493C21.1139 26.8493 21.2163 26.6883 21.3114 26.5153L21.3093 26.5101C21.3093 26.5101 21.3809 26.379 21.5007 26.1435L21.5243 26.0942L21.5253 26.0964C21.6666 25.8198 21.8649 25.4131 22.0941 24.9091C22.5433 23.9186 24.257 20.0945 24.4024 19.6714C24.5476 19.2484 24.6234 18.811 24.6951 18.6234C24.7656 18.436 25.3714 18.2946 26.0794 18.2998C26.7874 18.3049 26.8593 18.6071 26.8641 18.6696C26.8693 18.732 26.5275 19.5711 26.4487 20.1641C26.371 20.7573 26.4458 21.0532 26.5103 21.5511C26.5522 21.8767 26.7558 22.2897 26.9964 22.7578C27.729 21.5592 29.018 19.2667 29.1419 18.6244C29.2267 18.1851 29.3628 17.764 29.4345 17.5764C29.5061 17.389 30.1109 17.2477 30.8189 17.2527C31.5269 17.2579 31.5985 17.5601 31.6036 17.6226C31.6088 17.6851 31.2659 18.5241 31.1882 19.1172C31.1104 19.7093 31.1853 20.0064 31.2496 20.5042C31.305 20.9303 31.6343 21.503 31.9609 22.1543C32.8519 21.7148 33.9008 21.4199 35.1287 21.4138C35.6372 21.4109 36.2276 21.462 36.5326 21.5571V11.7569C36.5326 11.0654 36.1784 10.4283 35.58 10.0832L19.6017 0.842982C19.0042 0.497693 18.2726 0.497693 17.675 0.842982L1.74079 10.0787C1.14321 10.424 0.823914 11.0622 0.823914 11.7525V30.2409C0.823914 30.9312 1.14516 31.5694 1.74177 31.9146L17.7017 41.1576C18.2991 41.504 19.0236 41.504 19.6211 41.1576L35.5882 31.9146C36.1856 31.5683 36.5337 30.931 36.5337 30.2409V22.769C36.331 22.7093 36.0343 22.6622 35.7457 22.6286Z" fill="#CD6799"/>
<path fill-rule="evenodd" clip-rule="evenodd" d="M18.5771 21.674C18.2321 22.0572 17.6441 23.0455 17.3691 23.8726C16.8222 25.5149 17.0591 27.1839 17.4463 27.2842C17.8984 27.4016 18.64 25.2063 18.9951 24.3477C19.2176 23.8101 20.0828 21.4238 19.8932 21.1049C19.7452 20.8555 19.1322 21.0569 18.5771 21.674Z" fill="#CD6799"/>
<path fill-rule="evenodd" clip-rule="evenodd" d="M24.8063 27.222C24.8063 27.222 24.6996 27.3244 24.7458 27.3529C24.8082 27.3908 24.9432 27.3416 25.0903 27.2639C25.5064 26.9984 26.44 26.3359 26.4421 25.3557C26.4421 25.3272 26.441 25.2996 26.439 25.27C26.2225 25.5582 26.023 25.8147 25.8508 26.0324C25.5566 26.4033 24.8063 27.222 24.8063 27.222Z" fill="#CD6799"/>
</svg>
